<svg width="735" height="165" viewBox="0 0 735 165" fill="none" xmlns="http://www.w3.org/2000/svg">
<path d="M21.047 46.4V78.2857H8.29272V92.6343H21.047V158H36.9899V92.6343H59.6287V78.2857H36.9899V60.7486H59.6287V46.4H21.047ZM75.589 78.2857V158H91.5319V92.6343H122.142V78.2857H75.589ZM169.081 159.594C193.315 159.594 207.185 143.173 207.185 118.143C207.185 93.1126 193.315 76.6914 169.081 76.6914C144.848 76.6914 130.978 93.1126 130.978 118.143C130.978 143.173 144.848 159.594 169.081 159.594ZM146.921 118.143C146.921 97.4171 152.66 91.04 169.081 91.04C185.503 91.04 191.242 97.4171 191.242 118.143C191.242 138.869 185.503 145.246 169.081 145.246C152.66 145.246 146.921 138.869 146.921 118.143ZM221.628 78.2857V158H237.571V92.6343H272.645V158H288.588V78.2857H221.628ZM315.616 158H352.604V143.651H331.559V92.6343H352.604V78.2857H331.559V46.4H315.616V78.2857H302.862V92.6343H315.616V158Z" fill="white"/>
<path d="M398.699 123.49H417.739C454.459 123.49 466.529 107.17 466.529 82.86C466.529 58.55 454.459 42.4 417.739 42.4H374.049V158H398.699V123.49ZM398.699 100.54V65.35H423.349C437.629 65.35 441.879 71.3 441.879 82.86C441.879 93.91 437.629 100.54 423.349 100.54H398.699ZM492 158L497.95 137.09H540.62L546.57 158H572.92L538.24 42.4H500.33L465.65 158H492ZM504.58 114.14L518.01 67.73H520.73L533.99 114.14H504.58ZM586.881 158H628.871C667.291 158 684.461 138.28 684.461 100.2C684.461 61.95 667.291 42.4 628.871 42.4H586.881V158ZM611.531 135.05V65.35H628.871C655.391 65.35 659.811 74.7 659.811 100.2C659.811 125.02 655.391 135.05 628.871 135.05H611.531Z" fill="url(#paint0_linear_153_258)"/>
<path d="M688.098 19.5H694.298V32H699.298V19.5H705.498V15H688.098V19.5ZM707.898 32H712.898V19.5H717.398V32H722.398V19.5H726.898V32H731.898V15H707.898V32Z" fill="white"/>
<defs>
<linearGradient id="paint0_linear_153_258" x1="1.22776e-05" y1="161.453" x2="685.225" y2="36.4255" gradientUnits="userSpaceOnUse">
<stop stop-color="#00FEFE"/>
<stop offset="0.5" stop-color="#7D6BFF"/>
<stop offset="1" stop-color="#FA8EFD"/>
</linearGradient>
</defs>
</svg>
